<svg width="926" height="1018" viewBox="0 0 926 1018" fill="none" xmlns="http://www.w3.org/2000/svg">
<g clip-path="url(#clip0)">
<path d="M822.373 138.93C915.453 175.429 1006.29 208.451 1069.24 262.277C1132.85 316.011 1157.78 403.725 1140.37 484.075C1122.97 564.425 1063.23 637.411 1010.28 720.355C956.669 803.39 910.43 895.73 832.971 923.576C756.176 951.33 648.083 914.029 543.718 893.985C438.687 874.032 336.797 871.991 262.842 831.716C188.965 792.003 142.436 714.711 121.759 633.292C100.416 551.964 104.183 466.037 120.549 373.219C136.916 280.401 165.807 180.129 238.548 117.966C312.031 56.2734 430.031 32.5983 531.628 47.2907C632.561 62.0745 729.293 102.431 822.373 138.93Z" fill="url(#paint0_linear)"/>
</g>
<defs>
<linearGradient id="paint0_linear" x1="116.647" y1="406.668" x2="1126.78" y2="486.551" gradientUnits="userSpaceOnUse">
<stop stop-color="#3F6498"/>
<stop offset="1" stop-color="#4E94D1"/>
</linearGradient>
<clipPath id="clip0">
<rect width="926" height="1018" fill="white"/>
</clipPath>
</defs>
</svg>
