<svg width="156" height="23" viewBox="0 0 156 23" fill="none" xmlns="http://www.w3.org/2000/svg">
<path d="M12.675 18L11.425 13.85H5.6L4.35 18H0.5L6.25 0.55H10.95L16.625 18H12.675ZM8.55 4H8.425L6.5 10.625H10.5L8.55 4ZM19.0393 18V0.55H22.8393V14.625H29.4893V18H19.0393ZM42.9201 22.6H40.5701C39.2201 22.6 38.2368 22.2833 37.6201 21.65C37.0035 21.0167 36.6951 20.1 36.6951 18.9V18.175C34.8285 17.8417 33.3451 16.9333 32.2451 15.45C31.1618 13.95 30.6201 11.8917 30.6201 9.275C30.6201 7.79167 30.8035 6.49167 31.1701 5.375C31.5368 4.24167 32.0535 3.3 32.7201 2.55C33.3868 1.78333 34.1951 1.20833 35.1451 0.824999C36.0951 0.441666 37.1451 0.249999 38.2951 0.249999C39.4451 0.249999 40.4951 0.441666 41.4451 0.824999C42.3951 1.20833 43.2035 1.78333 43.8701 2.55C44.5368 3.3 45.0535 4.24167 45.4201 5.375C45.7868 6.49167 45.9701 7.79167 45.9701 9.275C45.9701 11.8083 45.4535 13.8167 44.4201 15.3C43.4035 16.7833 42.0118 17.7167 40.2451 18.1V19.5H42.9201V22.6ZM38.2951 14.925C39.4451 14.925 40.3368 14.55 40.9701 13.8C41.6201 13.05 41.9451 11.975 41.9451 10.575V7.975C41.9451 6.575 41.6201 5.5 40.9701 4.75C40.3368 4 39.4451 3.625 38.2951 3.625C37.1451 3.625 36.2451 4 35.5951 4.75C34.9618 5.5 34.6451 6.575 34.6451 7.975V10.575C34.6451 11.975 34.9618 13.05 35.5951 13.8C36.2451 14.55 37.1451 14.925 38.2951 14.925ZM52.7418 0.55V11.25C52.7418 12.4833 52.9835 13.4083 53.4668 14.025C53.9501 14.625 54.7585 14.925 55.8918 14.925C57.0251 14.925 57.8335 14.625 58.3168 14.025C58.8001 13.4083 59.0418 12.4833 59.0418 11.25V0.55H62.7418V10.85C62.7418 12.1333 62.6168 13.25 62.3668 14.2C62.1335 15.1333 61.7418 15.9083 61.1918 16.525C60.6418 17.125 59.9335 17.575 59.0668 17.875C58.2001 18.1583 57.1418 18.3 55.8918 18.3C54.6418 18.3 53.5835 18.1583 52.7168 17.875C51.8501 17.575 51.1418 17.125 50.5918 16.525C50.0418 15.9083 49.6418 15.1333 49.3918 14.2C49.1585 13.25 49.0418 12.1333 49.0418 10.85V0.55H52.7418ZM65.8252 18V14.975H68.0752V3.575H65.8252V0.55H74.1252V3.575H71.8752V14.975H74.1252V18H65.8252ZM77.2912 18V0.55H81.0912V14.625H87.7412V18H77.2912ZM101.713 18L100.463 13.85H94.6381L93.3881 18H89.5381L95.2881 0.55H99.9881L105.663 18H101.713ZM97.5881 4H97.4631L95.5381 10.625H99.5381L97.5881 4ZM108.077 0.55H114.652C115.802 0.55 116.852 0.733333 117.802 1.1C118.752 1.46667 119.561 2.01667 120.227 2.75C120.894 3.46667 121.411 4.375 121.777 5.475C122.144 6.55833 122.327 7.825 122.327 9.275C122.327 10.725 122.144 12 121.777 13.1C121.411 14.1833 120.894 15.0917 120.227 15.825C119.561 16.5417 118.752 17.0833 117.802 17.45C116.852 17.8167 115.802 18 114.652 18H108.077V0.55ZM114.652 14.625C115.786 14.625 116.677 14.3083 117.327 13.675C117.977 13.0417 118.302 12.025 118.302 10.625V7.925C118.302 6.525 117.977 5.50833 117.327 4.875C116.677 4.24167 115.786 3.925 114.652 3.925H111.877V14.625H114.652ZM132.509 18.3C131.359 18.3 130.309 18.1083 129.359 17.725C128.409 17.3417 127.601 16.775 126.934 16.025C126.267 15.2583 125.751 14.3167 125.384 13.2C125.017 12.0667 124.834 10.7583 124.834 9.275C124.834 7.79167 125.017 6.49167 125.384 5.375C125.751 4.24167 126.267 3.3 126.934 2.55C127.601 1.78333 128.409 1.20833 129.359 0.824999C130.309 0.441666 131.359 0.249999 132.509 0.249999C133.659 0.249999 134.709 0.441666 135.659 0.824999C136.609 1.20833 137.417 1.78333 138.084 2.55C138.751 3.3 139.267 4.24167 139.634 5.375C140.001 6.49167 140.184 7.79167 140.184 9.275C140.184 10.7583 140.001 12.0667 139.634 13.2C139.267 14.3167 138.751 15.2583 138.084 16.025C137.417 16.775 136.609 17.3417 135.659 17.725C134.709 18.1083 133.659 18.3 132.509 18.3ZM132.509 14.925C133.659 14.925 134.551 14.55 135.184 13.8C135.834 13.05 136.159 11.975 136.159 10.575V7.975C136.159 6.575 135.834 5.5 135.184 4.75C134.551 4 133.659 3.625 132.509 3.625C131.359 3.625 130.459 4 129.809 4.75C129.176 5.5 128.859 6.575 128.859 7.975V10.575C128.859 11.975 129.176 13.05 129.809 13.8C130.459 14.55 131.359 14.925 132.509 14.925ZM148.908 18.3C147.375 18.3 146.075 18.0417 145.008 17.525C143.941 16.9917 143.033 16.3083 142.283 15.475L144.783 12.95C145.966 14.2833 147.425 14.95 149.158 14.95C150.091 14.95 150.783 14.7583 151.233 14.375C151.683 13.9917 151.908 13.4833 151.908 12.85C151.908 12.3667 151.775 11.9667 151.508 11.65C151.241 11.3167 150.7 11.0917 149.883 10.975L148.158 10.75C146.308 10.5167 144.95 9.95833 144.083 9.075C143.233 8.19167 142.808 7.01667 142.808 5.55C142.808 4.76667 142.958 4.05 143.258 3.4C143.558 2.75 143.983 2.19167 144.533 1.725C145.1 1.25833 145.783 0.9 146.583 0.65C147.4 0.383333 148.325 0.249999 149.358 0.249999C150.675 0.249999 151.833 0.458332 152.833 0.874998C153.833 1.29167 154.691 1.9 155.408 2.7L152.883 5.25C152.466 4.76667 151.958 4.375 151.358 4.075C150.775 3.75833 150.033 3.6 149.133 3.6C148.283 3.6 147.65 3.75 147.233 4.05C146.816 4.35 146.608 4.76667 146.608 5.3C146.608 5.9 146.766 6.33333 147.083 6.6C147.416 6.86667 147.95 7.05833 148.683 7.175L150.408 7.45C152.208 7.73333 153.541 8.29167 154.408 9.125C155.275 9.94167 155.708 11.1083 155.708 12.625C155.708 13.4583 155.558 14.225 155.258 14.925C154.958 15.625 154.516 16.225 153.933 16.725C153.366 17.225 152.658 17.6167 151.808 17.9C150.958 18.1667 149.991 18.3 148.908 18.3Z" fill="url(#paint0_linear)"/>
<defs>
<linearGradient id="paint0_linear" x1="0" y1="8.00001" x2="157.5" y2="8.00001" gradientUnits="userSpaceOnUse">
<stop stop-color="#1F66CD"/>
<stop offset="1" stop-color="#4F95D1"/>
</linearGradient>
</defs>
</svg>
